<?xml version="1.0" encoding="UTF-8"?>
<svg xmlns="http://www.w3.org/2000/svg" width="300" height="1020" viewBox="0 0 300 1020" font-family="Inter, system-ui, sans-serif">
  <defs>
    <marker id="arrow" markerWidth="12" markerHeight="12" refX="10" refY="6" orient="auto" markerUnits="strokeWidth">
      <path d="M2,2 L10,6 L2,10 z" fill="#2d3748" />
    </marker>
  </defs>
  <rect width="100%" height="100%" fill="white" />
  <line x1="150.0" y1="110.0" x2="150.0" y2="270.0" stroke="#2d3748" stroke-width="2" marker-end="url(#arrow)" />
  <text x="150.0" y="180.0" fill="#2d3748" font-size="13" text-anchor="middle" dominant-baseline="central">Get money</text>
  <line x1="150.0" y1="270.0" x2="150.0" y2="430.0" stroke="#2d3748" stroke-width="2" marker-end="url(#arrow)" />
  <line x1="150.0" y1="430.0" x2="150.0" y2="590.0" stroke="#2d3748" stroke-width="2" marker-end="url(#arrow)" stroke-dasharray="8 6" />
  <text x="150.0" y="500.0" fill="#2d3748" font-size="13" text-anchor="middle" dominant-baseline="central">One</text>
  <line x1="150.0" y1="430.0" x2="150.0" y2="750.0" stroke="#2d3748" stroke-width="2" marker-end="url(#arrow)" stroke-dasharray="8 6" />
  <text x="150.0" y="580.0" fill="#2d3748" font-size="13" text-anchor="middle" dominant-baseline="central">Two</text>
  <line x1="150.0" y1="430.0" x2="150.0" y2="910.0" stroke="#2d3748" stroke-width="2" marker-end="url(#arrow)" stroke-dasharray="8 6" />
  <text x="150.0" y="660.0" fill="#2d3748" font-size="13" text-anchor="middle" dominant-baseline="central">Three</text>
  <polygon points="150.0,400.0 220.0,430.0 150.0,460.0 80.0,430.0" fill="#ffffff" stroke="#4a5568" stroke-width="2" />
  <text x="150.0" y="430.0" fill="#1a202c" font-size="14" text-anchor="middle" dominant-baseline="middle">Let me think</text>
  <rect x="80.0" y="560.0" width="140.0" height="60.0" rx="8" ry="8" fill="#ffffff" stroke="#4a5568" stroke-width="2" />
  <text x="150.0" y="590.0" fill="#1a202c" font-size="14" text-anchor="middle" dominant-baseline="middle">Laptop</text>
  <rect x="80.0" y="720.0" width="140.0" height="60.0" rx="8" ry="8" fill="#ffffff" stroke="#4a5568" stroke-width="2" />
  <text x="150.0" y="750.0" fill="#1a202c" font-size="14" text-anchor="middle" dominant-baseline="middle">iPhone</text>
  <rect x="80.0" y="880.0" width="140.0" height="60.0" rx="8" ry="8" fill="#ffffff" stroke="#4a5568" stroke-width="2" />
  <text x="150.0" y="910.0" fill="#1a202c" font-size="14" text-anchor="middle" dominant-baseline="middle">Car</text>
  <rect x="80.0" y="80.0" width="140.0" height="60.0" rx="8" ry="8" fill="#ffffff" stroke="#4a5568" stroke-width="2" />
  <text x="150.0" y="110.0" fill="#1a202c" font-size="14" text-anchor="middle" dominant-baseline="middle">Christmas</text>
  <rect x="80.0" y="240.0" width="140.0" height="60.0" rx="30" ry="30" fill="#ffffff" stroke="#4a5568" stroke-width="2" />
  <text x="150.0" y="270.0" fill="#1a202c" font-size="14" text-anchor="middle" dominant-baseline="middle">Go shopping</text>
</svg>
