<?xml version="1.0" encoding="UTF-8"?>
<svg xmlns="http://www.w3.org/2000/svg" width="620" height="474" viewBox="0 0 620 474" font-family="Inter, system-ui, sans-serif">
  <defs>
        <marker id="arrow-end" markerWidth="12" markerHeight="12" refX="10" refY="6" orient="auto" markerUnits="strokeWidth">
            <path d="M2,2 L10,6 L2,10 z" fill="context-stroke" />
        </marker>
        <marker id="arrow-start" markerWidth="12" markerHeight="12" refX="2" refY="6" orient="auto" markerUnits="strokeWidth">
            <path d="M10,2 L2,6 L10,10 z" fill="context-stroke" />
        </marker>
  </defs>
  <rect width="100%" height="100%" fill="white" />
  <line x1="415.5" y1="110.0" x2="183.7" y2="173.1" stroke="#1153c5" stroke-width="2" marker-start="url(#arrow-start)" marker-end="url(#arrow-end)" stroke-dasharray="8 6" />
  <text x="299.6" y="131.6" fill="#2d3748" font-size="13" text-anchor="middle" dominant-baseline="central">Get money</text>
  <line x1="183.7" y1="173.1" x2="342.0" y2="224.1" stroke="#2d3748" stroke-width="2" marker-end="url(#arrow-end)" />
  <line x1="342.0" y1="224.1" x2="150.0" y2="277.0" stroke="#2d3748" stroke-width="2" marker-end="url(#arrow-end)" stroke-dasharray="8 6" />
  <text x="246.0" y="240.5" fill="#2d3748" font-size="13" text-anchor="middle" dominant-baseline="central">One</text>
  <line x1="342.0" y1="224.1" x2="469.9" y2="364.4" stroke="#2d3748" stroke-width="2" marker-end="url(#arrow-end)" stroke-dasharray="8 6" />
  <text x="406.0" y="284.2" fill="#2d3748" font-size="13" text-anchor="middle" dominant-baseline="central">Two</text>
  <line x1="342.0" y1="224.1" x2="310.8" y2="336.5" stroke="#2d3748" stroke-width="2" marker-end="url(#arrow-end)" stroke-dasharray="8 6" />
  <text x="326.4" y="270.3" fill="#2d3748" font-size="13" text-anchor="middle" dominant-baseline="central">Three</text>
  <rect x="345.5" y="80.0" width="140.0" height="60.0" rx="8" ry="8" fill="#fde68a" stroke="#2d3748" stroke-width="2" />
  <text x="415.5" y="110.0" fill="#1a202c" font-size="14" text-anchor="middle" dominant-baseline="middle">Thing</text>
  <rect x="113.7" y="143.1" width="140.0" height="60.0" rx="30" ry="30" fill="#c4f1f9" stroke="#2d3748" stroke-width="2" />
  <text x="183.7" y="173.1" fill="#1a202c" font-size="14" text-anchor="middle" dominant-baseline="middle">Go shopping</text>
  <polygon points="342.0,194.1 412.0,224.1 342.0,254.1 272.0,224.1" fill="#fbcfe8" stroke="#2d3748" stroke-width="2" />
  <text x="342.0" y="224.1" fill="#1a202c" font-size="14" text-anchor="middle" dominant-baseline="middle">Let me think</text>
  <rect x="399.9" y="334.4" width="140.0" height="60.0" rx="8" ry="8" fill="#fde68a" stroke="#2d3748" stroke-width="2" />
  <text x="469.9" y="364.4" fill="#1a202c" font-size="14" text-anchor="middle" dominant-baseline="middle">iPhone</text>
  <rect x="240.8" y="306.5" width="140.0" height="60.0" rx="8" ry="8" fill="#fde68a" stroke="#2d3748" stroke-width="2" />
  <text x="310.8" y="336.5" fill="#1a202c" font-size="14" text-anchor="middle" dominant-baseline="middle">Car</text>
  <rect x="80.0" y="247.0" width="140.0" height="60.0" rx="8" ry="8" fill="#fde68a" stroke="#2d3748" stroke-width="2" />
  <text x="150.0" y="277.0" fill="#1a202c" font-size="14" text-anchor="middle" dominant-baseline="middle">Laptop</text>
</svg>
