<?xml version="1.0" encoding="UTF-8"?>
<svg xmlns="http://www.w3.org/2000/svg" width="1008" height="486" viewBox="0 0 1008 486" font-family="Inter, system-ui, sans-serif">
  <defs>
    <marker id="arrow" markerWidth="12" markerHeight="12" refX="10" refY="6" orient="auto" markerUnits="strokeWidth">
      <path d="M2,2 L10,6 L2,10 z" fill="#2d3748" />
    </marker>
  </defs>
  <rect width="100%" height="100%" fill="white" />
  <line x1="150.0" y1="110.0" x2="858.2" y2="165.6" stroke="#2d3748" stroke-width="2" marker-end="url(#arrow)" />
  <text x="504.1" y="127.8" fill="#2d3748" font-size="13" text-anchor="middle" dominant-baseline="central">Get money</text>
  <line x1="858.2" y1="165.6" x2="476.2" y2="251.2" stroke="#2d3748" stroke-width="2" marker-end="url(#arrow)" />
  <line x1="476.2" y1="251.2" x2="723.8" y2="337.0" stroke="#2d3748" stroke-width="2" marker-end="url(#arrow)" stroke-dasharray="8 6" />
  <text x="600.0" y="284.1" fill="#2d3748" font-size="13" text-anchor="middle" dominant-baseline="central">One</text>
  <line x1="476.2" y1="251.2" x2="245.8" y2="376.1" stroke="#2d3748" stroke-width="2" marker-end="url(#arrow)" stroke-dasharray="8 6" />
  <text x="361.0" y="303.7" fill="#2d3748" font-size="13" text-anchor="middle" dominant-baseline="central">Two</text>
  <line x1="476.2" y1="251.2" x2="310.0" y2="212.8" stroke="#2d3748" stroke-width="2" marker-end="url(#arrow)" stroke-dasharray="8 6" />
  <text x="393.1" y="222.0" fill="#2d3748" font-size="13" text-anchor="middle" dominant-baseline="central">Three</text>
  <polygon points="476.2,221.2 546.2,251.2 476.2,281.2 406.2,251.2" fill="#ffffff" stroke="#4a5568" stroke-width="2" />
  <text x="476.2" y="251.2" fill="#1a202c" font-size="14" text-anchor="middle" dominant-baseline="middle">Let me think</text>
  <rect x="653.8" y="307.0" width="140.0" height="60.0" rx="8" ry="8" fill="#ffffff" stroke="#4a5568" stroke-width="2" />
  <text x="723.8" y="337.0" fill="#1a202c" font-size="14" text-anchor="middle" dominant-baseline="middle">Laptop</text>
  <rect x="175.8" y="346.1" width="140.0" height="60.0" rx="8" ry="8" fill="#ffffff" stroke="#4a5568" stroke-width="2" />
  <text x="245.8" y="376.1" fill="#1a202c" font-size="14" text-anchor="middle" dominant-baseline="middle">iPhone</text>
  <rect x="240.0" y="182.8" width="140.0" height="60.0" rx="8" ry="8" fill="#ffffff" stroke="#4a5568" stroke-width="2" />
  <text x="310.0" y="212.8" fill="#1a202c" font-size="14" text-anchor="middle" dominant-baseline="middle">Car</text>
  <rect x="788.2" y="135.6" width="140.0" height="60.0" rx="30" ry="30" fill="#ffffff" stroke="#4a5568" stroke-width="2" />
  <text x="858.2" y="165.6" fill="#1a202c" font-size="14" text-anchor="middle" dominant-baseline="middle">Go shopping</text>
  <rect x="80.0" y="80.0" width="140.0" height="60.0" rx="8" ry="8" fill="#ffffff" stroke="#4a5568" stroke-width="2" />
  <text x="150.0" y="110.0" fill="#1a202c" font-size="14" text-anchor="middle" dominant-baseline="middle">Christmas</text>
</svg>
