<?xml version="1.0" encoding="UTF-8"?>
<svg xmlns="http://www.w3.org/2000/svg" xmlns:xlink="http://www.w3.org/1999/xlink" width="1507" height="552" viewBox="0 0 1507 552" font-family="Inter, system-ui, sans-serif">
  <defs>
        <marker id="arrow-end" markerWidth="8" markerHeight="8" refX="6" refY="4" orient="auto" markerUnits="strokeWidth">
            <path d="M1,1 L6,4 L1,7 z" fill="context-stroke" />
        </marker>
        <marker id="arrow-start" markerWidth="8" markerHeight="8" refX="2" refY="4" orient="auto" markerUnits="strokeWidth">
            <path d="M7,1 L2,4 L7,7 z" fill="context-stroke" />
        </marker>
  </defs>
  <rect width="100%" height="100%" fill="white" />
  <g class="edge" data-id="Start --&gt; Check">
  <line x1="225.0" y1="263.0" x2="324.2" y2="302.3" stroke="#2d3748" stroke-width="2" marker-end="url(#arrow-end)" />
  </g>
  <g class="edge" data-id="Check --&gt; Rollback">
  <polyline points="420.4,329.0 451.1,334.9 488.3,321.2 525.4,307.5 560.2,263.8" fill="none" stroke="#2d3748" stroke-width="2" marker-end="url(#arrow-end)" />
  <g pointer-events="none">
    <rect x="470.3" y="307.2" width="36.0" height="28.0" rx="6" ry="6" fill="white" fill-opacity="0.96" stroke="#2d3748" stroke-width="1" />
    <text x="488.3" y="321.2" fill="#2d3748" font-size="13" text-anchor="middle" dominant-baseline="middle" xml:space="preserve">No</text>
  </g>
  </g>
  <g class="edge" data-id="Rollback --&gt; Notify">
  <line x1="670.0" y1="238.1" x2="722.3" y2="238.1" stroke="#2d3748" stroke-width="2" marker-end="url(#arrow-end)" />
  </g>
  <g class="edge" data-id="Notify --&gt; Start">
  <polyline points="769.0,213.0 636.0,80.0 477.9,80.0 319.9,80.0 187.5,212.3" fill="none" stroke="#2d3748" stroke-width="2" marker-end="url(#arrow-end)" />
  </g>
  <g class="edge" data-id="Check --&gt; Monitor">
  <polyline points="380.5,338.9 419.3,387.5 456.4,401.2 493.6,414.9 580.8,398.0" fill="none" stroke="#2d3748" stroke-width="2" marker-end="url(#arrow-end)" />
  <g pointer-events="none">
    <rect x="437.3" y="387.2" width="38.2" height="28.0" rx="6" ry="6" fill="white" fill-opacity="0.96" stroke="#2d3748" stroke-width="1" />
    <text x="456.4" y="401.2" fill="#2d3748" font-size="13" text-anchor="middle" dominant-baseline="middle" xml:space="preserve">Yes</text>
  </g>
  </g>
  <g class="edge" data-id="Monitor --&gt; Incident">
  <line x1="677.4" y1="398.0" x2="696.4" y2="398.0" stroke="#2d3748" stroke-width="2" marker-end="url(#arrow-end)" />
  </g>
  <g class="edge" data-id="Incident --&gt; Success">
  <line x1="817.5" y1="379.1" x2="960.6" y2="263.7" stroke="#2d3748" stroke-width="2" marker-end="url(#arrow-end)" />
  <g pointer-events="none">
    <rect x="871.0" y="297.4" width="36.0" height="28.0" rx="6" ry="6" fill="white" fill-opacity="0.96" stroke="#2d3748" stroke-width="1" />
    <text x="889.0" y="311.4" fill="#2d3748" font-size="13" text-anchor="middle" dominant-baseline="middle" xml:space="preserve">No</text>
  </g>
  </g>
  <g class="edge" data-id="Incident --&gt; Runbook">
  <polyline points="821.2,416.0 863.6,444.0 893.2,444.0 922.8,444.0 953.7,423.6" fill="none" stroke="#2d3748" stroke-width="2" marker-end="url(#arrow-end)" />
  <g pointer-events="none">
    <rect x="874.1" y="430.0" width="38.2" height="28.0" rx="6" ry="6" fill="white" fill-opacity="0.96" stroke="#2d3748" stroke-width="1" />
    <text x="893.2" y="444.0" fill="#2d3748" font-size="13" text-anchor="middle" dominant-baseline="middle" xml:space="preserve">Yes</text>
  </g>
  </g>
  <g class="edge" data-id="Runbook --&gt; Patch">
  <line x1="1074.2" y1="398.0" x2="1093.2" y2="398.0" stroke="#2d3748" stroke-width="2" marker-end="url(#arrow-end)" />
  </g>
  <g class="edge" data-id="Patch --&gt; DeployHotfix">
  <line x1="1250.4" y1="398.0" x2="1269.4" y2="398.0" stroke="#2d3748" stroke-width="2" marker-end="url(#arrow-end)" />
  </g>
  <g class="edge" data-id="DeployHotfix --&gt; Check">
  <polyline points="1348.5,423.0 1348.5,472.0 363.9,472.0 363.9,344.0" fill="none" stroke="#2d3748" stroke-width="2" marker-end="url(#arrow-end)" />
  </g>
  <g class="node" data-id="Start">
  <rect x="80.0" y="213.1" width="163.6" height="50.0" rx="30" ry="30" fill="#c4f1f9" stroke="#2d3748" stroke-width="2" />
  <text x="161.8" y="238.1" fill="#1a202c" font-size="14" text-anchor="middle" dominant-baseline="middle">Deploy Release</text>
  </g>
  <g class="node" data-id="Check">
  <polygon points="363.9,293.0 464.2,318.0 363.9,343.0 263.6,318.0" fill="#fbcfe8" stroke="#2d3748" stroke-width="2" />
  <text x="363.9" y="318.0" fill="#1a202c" font-size="14" text-anchor="middle" dominant-baseline="middle">Health Checks Pass?</text>
  </g>
  <g class="node" data-id="Rollback">
  <rect x="491.6" y="213.1" width="178.4" height="50.0" rx="8" ry="8" fill="#fde68a" stroke="#2d3748" stroke-width="2" />
  <text x="580.8" y="238.1" fill="#1a202c" font-size="14" text-anchor="middle" dominant-baseline="middle">Trigger Rollback</text>
  </g>
  <g class="node" data-id="Notify">
  <rect x="723.3" y="213.1" width="141.4" height="50.0" rx="8" ry="8" fill="#fde68a" stroke="#2d3748" stroke-width="2" />
  <text x="794.0" y="238.1" fill="#1a202c" font-size="14" text-anchor="middle" dominant-baseline="middle">Notify Team</text>
  </g>
  <g class="node" data-id="Monitor">
  <rect x="484.2" y="373.0" width="193.2" height="50.0" rx="8" ry="8" fill="#fde68a" stroke="#2d3748" stroke-width="2" />
  <text x="580.8" y="398.0" fill="#1a202c" font-size="14" text-anchor="middle" dominant-baseline="middle">Continuous Monitor</text>
  </g>
  <g class="node" data-id="Incident">
  <polygon points="794.0,373.0 890.6,398.0 794.0,423.0 697.4,398.0" fill="#fbcfe8" stroke="#2d3748" stroke-width="2" />
  <text x="794.0" y="398.0" fill="#1a202c" font-size="14" text-anchor="middle" dominant-baseline="middle">Incident Detected?</text>
  </g>
  <g class="node" data-id="Success">
  <rect x="922.4" y="213.1" width="140.0" height="50.0" rx="30" ry="30" fill="#c4f1f9" stroke="#2d3748" stroke-width="2" />
  <text x="992.4" y="238.1" fill="#1a202c" font-size="14" text-anchor="middle" dominant-baseline="middle">Stable</text>
  </g>
  <g class="node" data-id="Runbook">
  <rect x="910.6" y="373.0" width="163.6" height="50.0" rx="8" ry="8" fill="#fde68a" stroke="#2d3748" stroke-width="2" />
  <text x="992.4" y="398.0" fill="#1a202c" font-size="14" text-anchor="middle" dominant-baseline="middle">Follow Runbook</text>
  </g>
  <g class="node" data-id="Patch">
  <rect x="1094.2" y="373.0" width="156.2" height="50.0" rx="8" ry="8" fill="#fde68a" stroke="#2d3748" stroke-width="2" />
  <text x="1172.3" y="398.0" fill="#1a202c" font-size="14" text-anchor="middle" dominant-baseline="middle">Create Hotfix</text>
  </g>
  <g class="node" data-id="DeployHotfix">
  <rect x="1270.4" y="373.0" width="156.2" height="50.0" rx="8" ry="8" fill="#fde68a" stroke="#2d3748" stroke-width="2" />
  <text x="1348.5" y="398.0" fill="#1a202c" font-size="14" text-anchor="middle" dominant-baseline="middle">Deploy Hotfix</text>
  </g>
</svg>
