<?xml version="1.0" encoding="UTF-8"?>
<svg xmlns="http://www.w3.org/2000/svg" xmlns:xlink="http://www.w3.org/1999/xlink" width="1400" height="388" viewBox="0 0 1400 388" font-family="Inter, system-ui, sans-serif">
  <rect width="100%" height="100%" fill="white" />
  <text x="700.0" y="36" fill="#1a202c" font-size="20" font-weight="700" text-anchor="middle">GANTT compact</text>
  <rect x="0" y="68.0" width="1400.0" height="120.0" fill="#eff6ff" />
  <text x="16" y="128.0" fill="#1f2937" font-size="14" font-weight="600" dominant-baseline="middle">DB Clean</text>
  <rect x="0" y="188.0" width="1400.0" height="120.0" fill="#dbeafe" />
  <text x="16" y="248.0" fill="#1f2937" font-size="14" font-weight="600" dominant-baseline="middle">Sessions</text>
  <rect x="160.0" y="68.0" width="1200.0" height="40.0" fill="#eff6ff" />
  <rect x="160.0" y="108.0" width="1200.0" height="40.0" fill="#dbeafe" />
  <rect x="160.0" y="148.0" width="1200.0" height="40.0" fill="#eff6ff" />
  <rect x="160.0" y="188.0" width="1200.0" height="40.0" fill="#dbeafe" />
  <rect x="160.0" y="228.0" width="1200.0" height="40.0" fill="#eff6ff" />
  <rect x="160.0" y="268.0" width="1200.0" height="40.0" fill="#dbeafe" />
  <line x1="160.0" y1="54.0" x2="160.0" y2="308.0" stroke="#cbd5e1" stroke-width="1" />
  <text x="160.0" y="340.0" fill="#64748b" font-size="16" text-anchor="middle">12:00</text>
  <line x1="310.0" y1="54.0" x2="310.0" y2="308.0" stroke="#cbd5e1" stroke-width="1" />
  <text x="310.0" y="340.0" fill="#64748b" font-size="16" text-anchor="middle">12:09</text>
  <line x1="460.0" y1="54.0" x2="460.0" y2="308.0" stroke="#cbd5e1" stroke-width="1" />
  <text x="460.0" y="340.0" fill="#64748b" font-size="16" text-anchor="middle">12:19</text>
  <line x1="610.0" y1="54.0" x2="610.0" y2="308.0" stroke="#cbd5e1" stroke-width="1" />
  <text x="610.0" y="340.0" fill="#64748b" font-size="16" text-anchor="middle">12:28</text>
  <line x1="760.0" y1="54.0" x2="760.0" y2="308.0" stroke="#cbd5e1" stroke-width="1" />
  <text x="760.0" y="340.0" fill="#64748b" font-size="16" text-anchor="middle">12:38</text>
  <line x1="910.0" y1="54.0" x2="910.0" y2="308.0" stroke="#cbd5e1" stroke-width="1" />
  <text x="910.0" y="340.0" fill="#64748b" font-size="16" text-anchor="middle">12:48</text>
  <line x1="1060.0" y1="54.0" x2="1060.0" y2="308.0" stroke="#cbd5e1" stroke-width="1" />
  <text x="1060.0" y="340.0" fill="#64748b" font-size="16" text-anchor="middle">12:57</text>
  <line x1="1210.0" y1="54.0" x2="1210.0" y2="308.0" stroke="#cbd5e1" stroke-width="1" />
  <text x="1210.0" y="340.0" fill="#64748b" font-size="16" text-anchor="middle">13:07</text>
  <line x1="1360.0" y1="54.0" x2="1360.0" y2="308.0" stroke="#cbd5e1" stroke-width="1" />
  <text x="1360.0" y="340.0" fill="#64748b" font-size="16" text-anchor="middle">13:17</text>
  <g class="gantt-task" data-task-id="task_1">
    <rect class="gantt-handle" data-drag-kind="move" x="160.0" y="78.0" width="155.8" height="20.0" rx="4" ry="4" fill="#2563eb" stroke="#ffffff" stroke-width="2" />
    <text x="237.9" y="88.0" fill="#ffffff" font-size="13" text-anchor="middle" dominant-baseline="middle">Clean</text>
    <rect class="gantt-handle" data-drag-kind="resize-start" x="156.0" y="76.0" width="8" height="24.0" fill="transparent" />
    <rect class="gantt-handle" data-drag-kind="resize-end" x="311.8" y="76.0" width="8" height="24.0" fill="transparent" />
  </g>
  <g class="gantt-task" data-task-id="task_2">
    <rect class="gantt-handle" data-drag-kind="move" x="627.5" y="118.0" width="187.0" height="20.0" rx="4" ry="4" fill="#2563eb" stroke="#ffffff" stroke-width="2" />
    <text x="721.0" y="128.0" fill="#ffffff" font-size="13" text-anchor="middle" dominant-baseline="middle">Clean</text>
    <rect class="gantt-handle" data-drag-kind="resize-start" x="623.5" y="116.0" width="8" height="24.0" fill="transparent" />
    <rect class="gantt-handle" data-drag-kind="resize-end" x="810.5" y="116.0" width="8" height="24.0" fill="transparent" />
  </g>
  <g class="gantt-task" data-task-id="task_3">
    <rect class="gantt-handle" data-drag-kind="move" x="1095.1" y="158.0" width="124.7" height="20.0" rx="4" ry="4" fill="#2563eb" stroke="#ffffff" stroke-width="2" />
    <text x="1157.4" y="168.0" fill="#ffffff" font-size="13" text-anchor="middle" dominant-baseline="middle">Clean</text>
    <rect class="gantt-handle" data-drag-kind="resize-start" x="1091.1" y="156.0" width="8" height="24.0" fill="transparent" />
    <rect class="gantt-handle" data-drag-kind="resize-end" x="1215.7" y="156.0" width="8" height="24.0" fill="transparent" />
  </g>
  <g class="gantt-task" data-task-id="task_4">
    <rect class="gantt-handle" data-drag-kind="move" x="160.0" y="198.0" width="981.8" height="20.0" rx="4" ry="4" fill="#2563eb" stroke="#ffffff" stroke-width="2" />
    <text x="650.9" y="208.0" fill="#ffffff" font-size="13" text-anchor="middle" dominant-baseline="middle">A</text>
    <rect class="gantt-handle" data-drag-kind="resize-start" x="156.0" y="196.0" width="8" height="24.0" fill="transparent" />
    <rect class="gantt-handle" data-drag-kind="resize-end" x="1137.8" y="196.0" width="8" height="24.0" fill="transparent" />
  </g>
  <g class="gantt-task" data-task-id="task_5">
    <rect class="gantt-handle" data-drag-kind="move" x="627.5" y="238.0" width="187.0" height="20.0" rx="4" ry="4" fill="#2563eb" stroke="#ffffff" stroke-width="2" />
    <text x="721.0" y="248.0" fill="#ffffff" font-size="13" text-anchor="middle" dominant-baseline="middle">B</text>
    <rect class="gantt-handle" data-drag-kind="resize-start" x="623.5" y="236.0" width="8" height="24.0" fill="transparent" />
    <rect class="gantt-handle" data-drag-kind="resize-end" x="810.5" y="236.0" width="8" height="24.0" fill="transparent" />
  </g>
  <g class="gantt-task" data-task-id="task_6">
    <rect class="gantt-handle" data-drag-kind="move" x="1173.0" y="278.0" width="187.0" height="20.0" rx="4" ry="4" fill="#2563eb" stroke="#ffffff" stroke-width="2" />
    <text x="1266.5" y="288.0" fill="#ffffff" font-size="13" text-anchor="middle" dominant-baseline="middle">C</text>
    <rect class="gantt-handle" data-drag-kind="resize-start" x="1169.0" y="276.0" width="8" height="24.0" fill="transparent" />
    <rect class="gantt-handle" data-drag-kind="resize-end" x="1356.0" y="276.0" width="8" height="24.0" fill="transparent" />
  </g>
</svg>
