<?xml version="1.0" encoding="UTF-8"?>
<svg xmlns="http://www.w3.org/2000/svg" xmlns:xlink="http://www.w3.org/1999/xlink" width="2036" height="2254" viewBox="0 0 2036 2254" font-family="Inter, system-ui, sans-serif">
  <defs>
        <marker id="arrow-end" markerWidth="8" markerHeight="8" refX="6" refY="4" orient="auto" markerUnits="strokeWidth">
            <path d="M1,1 L6,4 L1,7 z" fill="context-stroke" />
        </marker>
        <marker id="arrow-start" markerWidth="8" markerHeight="8" refX="2" refY="4" orient="auto" markerUnits="strokeWidth">
            <path d="M7,1 L2,4 L7,7 z" fill="context-stroke" />
        </marker>
  </defs>
  <rect width="100%" height="100%" fill="white" />
  <g class="subgraph" data-id="LLM_Code_Map_Generation">
    <rect x="80.0" y="476.0" width="1300.7" height="982.0" rx="16" ry="16" fill="#edf2f7" fill-opacity="0.7" stroke="#a0aec0" stroke-width="1.5" />
    <text x="1190.5" y="496.0" fill="#2d3748" font-size="14" font-weight="600" text-anchor="start" dominant-baseline="hanging">LLM Code Map Generation</text>
  </g>
  <g class="subgraph" data-id="Edit_Mode">
    <rect x="450.7" y="1554.0" width="1231.1" height="342.0" rx="16" ry="16" fill="#edf2f7" fill-opacity="0.7" stroke="#a0aec0" stroke-width="1.5" />
    <text x="1595.2" y="1574.0" fill="#2d3748" font-size="14" font-weight="600" text-anchor="start" dominant-baseline="hanging">Edit Mode</text>
  </g>
  <g class="subgraph" data-id="New_Diagram">
    <rect x="638.7" y="1992.0" width="801.2" height="182.0" rx="16" ry="16" fill="#edf2f7" fill-opacity="0.7" stroke="#a0aec0" stroke-width="1.5" />
    <text x="1338.5" y="2012.0" fill="#2d3748" font-size="14" font-weight="600" text-anchor="start" dominant-baseline="hanging">New Diagram</text>
  </g>
  <g class="subgraph" data-id="Render_Diagram">
    <rect x="1391.9" y="796.0" width="563.7" height="662.0" rx="16" ry="16" fill="#edf2f7" fill-opacity="0.7" stroke="#a0aec0" stroke-width="1.5" />
    <text x="1832.0" y="816.0" fill="#2d3748" font-size="14" font-weight="600" text-anchor="start" dominant-baseline="hanging">Render Diagram</text>
  </g>
  <g class="edge" data-id="A --&gt; B">
  <line x1="1010.4" y1="130.0" x2="1010.4" y2="239.0" stroke="#2d3748" stroke-width="2" marker-end="url(#arrow-end)" />
  </g>
  <g class="edge" data-id="B --&gt; C">
  <polyline points="992.9,284.4 916.4,369.0 916.4,399.0" fill="none" stroke="#2d3748" stroke-width="2" marker-end="url(#arrow-end)" />
  <g pointer-events="none">
    <rect x="897.3" y="355.0" width="38.2" height="28.0" rx="6" ry="6" fill="white" fill-opacity="0.96" stroke="#2d3748" stroke-width="1" />
    <text x="916.4" y="369.0" fill="#2d3748" font-size="13" text-anchor="middle" dominant-baseline="middle" xml:space="preserve">Yes</text>
  </g>
  </g>
  <g class="edge" data-id="B --&gt; D">
  <polyline points="1031.1,283.4 1127.3,369.0 1127.3,399.0" fill="none" stroke="#2d3748" stroke-width="2" marker-end="url(#arrow-end)" />
  <g pointer-events="none">
    <rect x="1109.3" y="355.0" width="36.0" height="28.0" rx="6" ry="6" fill="white" fill-opacity="0.96" stroke="#2d3748" stroke-width="1" />
    <text x="1127.3" y="369.0" fill="#2d3748" font-size="13" text-anchor="middle" dominant-baseline="middle" xml:space="preserve">No</text>
  </g>
  </g>
  <g class="edge" data-id="D --&gt; E">
  <polyline points="1088.5,436.2 766.2,529.0 766.2,559.0" fill="none" stroke="#2d3748" stroke-width="2" marker-end="url(#arrow-end)" />
  <g pointer-events="none">
    <rect x="747.1" y="515.0" width="38.2" height="28.0" rx="6" ry="6" fill="white" fill-opacity="0.96" stroke="#2d3748" stroke-width="1" />
    <text x="766.2" y="529.0" fill="#2d3748" font-size="13" text-anchor="middle" dominant-baseline="middle" xml:space="preserve">Yes</text>
  </g>
  </g>
  <g class="edge" data-id="D --&gt; F">
  <polyline points="1102.0,441.0 962.3,529.0 962.3,559.0" fill="none" stroke="#2d3748" stroke-width="2" marker-end="url(#arrow-end)" />
  <g pointer-events="none">
    <rect x="944.3" y="515.0" width="36.0" height="28.0" rx="6" ry="6" fill="white" fill-opacity="0.96" stroke="#2d3748" stroke-width="1" />
    <text x="962.3" y="529.0" fill="#2d3748" font-size="13" text-anchor="middle" dominant-baseline="middle" xml:space="preserve">No</text>
  </g>
  </g>
  <g class="edge" data-id="F --&gt; G">
  <polyline points="962.3,610.0 962.3,636.0 461.4,636.0 461.4,719.0" fill="none" stroke="#2d3748" stroke-width="2" marker-end="url(#arrow-end)" />
  <g pointer-events="none">
    <rect x="442.3" y="622.0" width="38.2" height="28.0" rx="6" ry="6" fill="white" fill-opacity="0.96" stroke="#2d3748" stroke-width="1" />
    <text x="461.4" y="636.0" fill="#2d3748" font-size="13" text-anchor="middle" dominant-baseline="middle" xml:space="preserve">Yes</text>
  </g>
  </g>
  <g class="edge" data-id="F --&gt; H">
  <polyline points="927.2,597.5 669.3,689.0 669.3,719.0" fill="none" stroke="#2d3748" stroke-width="2" marker-end="url(#arrow-end)" />
  <g pointer-events="none">
    <rect x="651.3" y="675.0" width="36.0" height="28.0" rx="6" ry="6" fill="white" fill-opacity="0.96" stroke="#2d3748" stroke-width="1" />
    <text x="669.3" y="689.0" fill="#2d3748" font-size="13" text-anchor="middle" dominant-baseline="middle" xml:space="preserve">No</text>
  </g>
  </g>
  <g class="edge" data-id="C --&gt; I">
  <line x1="961.7" y1="450.0" x2="1160.3" y2="559.5" stroke="#2d3748" stroke-width="2" marker-end="url(#arrow-end)" />
  </g>
  <g class="edge" data-id="I --&gt; J">
  <line x1="1170.1" y1="610.0" x2="1010.6" y2="719.4" stroke="#2d3748" stroke-width="2" marker-end="url(#arrow-end)" />
  </g>
  <g class="edge" data-id="J --&gt; K">
  <line x1="872.6" y1="770.0" x2="430.0" y2="879.8" stroke="#2d3748" stroke-width="2" marker-end="url(#arrow-end)" />
  </g>
  <g class="edge" data-id="K --&gt; L">
  <line x1="328.2" y1="930.0" x2="328.2" y2="1039.0" stroke="#2d3748" stroke-width="2" marker-end="url(#arrow-end)" />
  </g>
  <g class="edge" data-id="L --&gt; M">
  <line x1="328.2" y1="1090.0" x2="328.2" y2="1199.0" stroke="#2d3748" stroke-width="2" marker-end="url(#arrow-end)" />
  </g>
  <g class="edge" data-id="M --&gt; N">
  <polyline points="465.9,1250.0 900.9,1329.0 900.9,1359.0" fill="none" stroke="#2d3748" stroke-width="2" marker-end="url(#arrow-end)" />
  <g pointer-events="none">
    <rect x="874.4" y="1315.0" width="53.0" height="28.0" rx="6" ry="6" fill="white" fill-opacity="0.96" stroke="#2d3748" stroke-width="1" />
    <text x="900.9" y="1329.0" fill="#2d3748" font-size="13" text-anchor="middle" dominant-baseline="middle" xml:space="preserve">Valid</text>
  </g>
  </g>
  <g class="edge" data-id="M --&gt; K">
  <polyline points="328.2,1225.0 205.6,1225.0 205.6,1017.0 328.2,1017.0 328.2,931.0" fill="none" stroke="#2d3748" stroke-width="2" marker-end="url(#arrow-end)" />
  <g pointer-events="none">
    <rect x="294.3" y="1003.0" width="67.8" height="28.0" rx="6" ry="6" fill="white" fill-opacity="0.96" stroke="#2d3748" stroke-width="1" />
    <text x="328.2" y="1017.0" fill="#2d3748" font-size="13" text-anchor="middle" dominant-baseline="middle" xml:space="preserve">Invalid</text>
  </g>
  </g>
  <g class="edge" data-id="E --&gt; O">
  <polyline points="766.2,610.0 766.2,613.0 766.2,1663.0 1245.8,1663.0 1273.8,1663.0" fill="none" stroke="#2d3748" stroke-width="2" marker-end="url(#arrow-end)" />
  </g>
  <g class="edge" data-id="E --&gt; P">
  <polyline points="766.2,610.0 766.2,1737.0 1518.7,1737.0 1518.7,1689.0" fill="none" stroke="#2d3748" stroke-width="2" marker-end="url(#arrow-end)" />
  </g>
  <g class="edge" data-id="E --&gt; Q">
  <polyline points="766.2,585.0 738.2,585.0 568.7,585.0 568.7,1795.0 568.7,1797.0" fill="none" stroke="#2d3748" stroke-width="2" marker-end="url(#arrow-end)" />
  </g>
  <g class="edge" data-id="G --&gt; R">
  <line x1="467.3" y1="770.0" x2="773.5" y2="2075.0" stroke="#2d3748" stroke-width="2" marker-end="url(#arrow-end)" />
  </g>
  <g class="edge" data-id="G --&gt; S">
  <line x1="471.6" y1="770.0" x2="1006.5" y2="2075.1" stroke="#2d3748" stroke-width="2" marker-end="url(#arrow-end)" />
  </g>
  <g class="edge" data-id="G --&gt; T">
  <polyline points="535.8,765.1 1071.2,909.9 1244.1,1197.5 1417.0,1485.1 1282.7,2075.0" fill="none" stroke="#2d3748" stroke-width="2" marker-end="url(#arrow-end)" />
  </g>
  <g class="edge" data-id="G --&gt; Q">
  <polyline points="461.4,745.0 489.4,745.0 568.7,745.0 568.7,1795.0 568.7,1797.0" fill="none" stroke="#2d3748" stroke-width="2" marker-end="url(#arrow-end)" />
  </g>
  <g class="edge" data-id="H --&gt; U">
  <polyline points="686.3,770.0 839.6,995.3 1050.0,1035.3 1260.3,1075.3 1473.0,930.6" fill="none" stroke="#2d3748" stroke-width="2" marker-end="url(#arrow-end)" />
  </g>
  <g class="edge" data-id="H --&gt; V">
  <polyline points="687.7,770.0 892.5,1048.2 1155.8,1088.2 1419.0,1128.2 1687.4,930.6" fill="none" stroke="#2d3748" stroke-width="2" marker-end="url(#arrow-end)" />
  </g>
  <g class="edge" data-id="V --&gt; W">
  <line x1="1722.2" y1="930.0" x2="1722.2" y2="1039.0" stroke="#2d3748" stroke-width="2" marker-end="url(#arrow-end)" />
  </g>
  <g class="edge" data-id="W --&gt; X">
  <line x1="1722.2" y1="1090.0" x2="1722.2" y2="1199.0" stroke="#2d3748" stroke-width="2" marker-end="url(#arrow-end)" />
  </g>
  <g class="edge" data-id="X --&gt; Y">
  <line x1="1722.2" y1="1250.0" x2="1722.2" y2="1359.0" stroke="#2d3748" stroke-width="2" marker-end="url(#arrow-end)" />
  </g>
  <g class="node" data-id="A">
  <rect x="895.3" y="80.0" width="230.2" height="50.0" rx="8" ry="8" fill="#fde68a" stroke="#2d3748" stroke-width="2" />
  <text x="1010.4" y="105.0" fill="#1a202c" font-size="14" text-anchor="middle" dominant-baseline="middle">cli::run_render_or_edit</text>
  </g>
  <g class="node" data-id="B">
  <polygon points="1010.4,240.0 1088.5,265.0 1010.4,290.0 932.3,265.0" fill="#fbcfe8" stroke="#2d3748" stroke-width="2" />
  <text x="1010.4" y="265.0" fill="#1a202c" font-size="14" text-anchor="middle" dominant-baseline="middle">cli.code_map?</text>
  </g>
  <g class="node" data-id="C">
  <rect x="823.5" y="400.0" width="185.8" height="50.0" rx="8" ry="8" fill="#fde68a" stroke="#2d3748" stroke-width="2" />
  <text x="916.4" y="425.0" fill="#1a202c" font-size="14" text-anchor="middle" dominant-baseline="middle">cli::run_code_map</text>
  </g>
  <g class="node" data-id="D">
  <polygon points="1127.3,400.0 1197.3,425.0 1127.3,450.0 1057.3,425.0" fill="#fbcfe8" stroke="#2d3748" stroke-width="2" />
  <text x="1127.3" y="425.0" fill="#1a202c" font-size="14" text-anchor="middle" dominant-baseline="middle">cli.edit?</text>
  </g>
  <g class="node" data-id="E">
  <rect x="688.1" y="560.0" width="156.2" height="50.0" rx="8" ry="8" fill="#fde68a" stroke="#2d3748" stroke-width="2" />
  <text x="766.2" y="585.0" fill="#1a202c" font-size="14" text-anchor="middle" dominant-baseline="middle">cli::run_edit</text>
  </g>
  <g class="node" data-id="F">
  <polygon points="962.3,560.0 1032.3,585.0 962.3,610.0 892.3,585.0" fill="#fbcfe8" stroke="#2d3748" stroke-width="2" />
  <text x="962.3" y="585.0" fill="#1a202c" font-size="14" text-anchor="middle" dominant-baseline="middle">cli.new?</text>
  </g>
  <g class="node" data-id="G">
  <rect x="387.0" y="720.0" width="148.8" height="50.0" rx="8" ry="8" fill="#fde68a" stroke="#2d3748" stroke-width="2" />
  <text x="461.4" y="745.0" fill="#1a202c" font-size="14" text-anchor="middle" dominant-baseline="middle">cli::run_new</text>
  </g>
  <g class="node" data-id="H">
  <rect x="583.8" y="720.0" width="171.0" height="50.0" rx="8" ry="8" fill="#fde68a" stroke="#2d3748" stroke-width="2" />
  <text x="669.3" y="745.0" fill="#1a202c" font-size="14" text-anchor="middle" dominant-baseline="middle">cli::run_render</text>
  </g>
  <g class="node" data-id="I">
  <rect x="1080.3" y="560.0" width="252.4" height="50.0" rx="8" ry="8" fill="#fde68a" stroke="#2d3748" stroke-width="2" />
  <text x="1206.5" y="585.0" fill="#1a202c" font-size="14" text-anchor="middle" dominant-baseline="middle">codemap::generate_code_map</text>
  </g>
  <g class="node" data-id="J">
  <rect x="802.8" y="720.0" width="341.2" height="50.0" rx="8" ry="8" fill="#fde68a" stroke="#2d3748" stroke-width="2" />
  <text x="973.4" y="745.0" fill="#1a202c" font-size="14" text-anchor="middle" dominant-baseline="middle">Scan codebase (codemap::scan_codebase)</text>
  </g>
  <g class="node" data-id="K">
  <rect x="205.7" y="880.0" width="245.0" height="50.0" rx="8" ry="8" fill="#fde68a" stroke="#2d3748" stroke-width="2" />
  <text x="328.2" y="905.0" fill="#1a202c" font-size="14" text-anchor="middle" dominant-baseline="middle">LLM API Request (reqwest)</text>
  </g>
  <g class="node" data-id="L">
  <rect x="231.6" y="1040.0" width="193.2" height="50.0" rx="8" ry="8" fill="#fde68a" stroke="#2d3748" stroke-width="2" />
  <text x="328.2" y="1065.0" fill="#1a202c" font-size="14" text-anchor="middle" dominant-baseline="middle">Parse LLM Response</text>
  </g>
  <g class="node" data-id="M">
  <rect x="128.0" y="1200.0" width="400.4" height="50.0" rx="8" ry="8" fill="#fde68a" stroke="#2d3748" stroke-width="2" />
  <text x="328.2" y="1225.0" fill="#1a202c" font-size="14" text-anchor="middle" dominant-baseline="middle">Validate Response (codemap::validate_response)</text>
  </g>
  <g class="node" data-id="N">
  <rect x="774.7" y="1360.0" width="252.4" height="50.0" rx="8" ry="8" fill="#fde68a" stroke="#2d3748" stroke-width="2" />
  <text x="900.9" y="1385.0" fill="#1a202c" font-size="14" text-anchor="middle" dominant-baseline="middle">Return Mermaid and Mapping</text>
  </g>
  <g class="node" data-id="O">
  <rect x="1192.0" y="1638.0" width="163.6" height="50.0" rx="8" ry="8" fill="#fde68a" stroke="#2d3748" stroke-width="2" />
  <text x="1273.8" y="1663.0" fill="#1a202c" font-size="14" text-anchor="middle" dominant-baseline="middle">locate_ui_dist</text>
  </g>
  <g class="node" data-id="P">
  <rect x="1403.6" y="1638.0" width="230.2" height="50.0" rx="8" ry="8" fill="#fde68a" stroke="#2d3748" stroke-width="2" />
  <text x="1518.7" y="1663.0" fill="#1a202c" font-size="14" text-anchor="middle" dominant-baseline="middle">ServeArgs Configuration</text>
  </g>
  <g class="node" data-id="Q">
  <rect x="498.7" y="1798.0" width="140.0" height="50.0" rx="8" ry="8" fill="#fde68a" stroke="#2d3748" stroke-width="2" />
  <text x="568.7" y="1823.0" fill="#1a202c" font-size="14" text-anchor="middle" dominant-baseline="middle">run_serve</text>
  </g>
  <g class="node" data-id="R">
  <rect x="686.7" y="2076.0" width="185.8" height="50.0" rx="8" ry="8" fill="#fde68a" stroke="#2d3748" stroke-width="2" />
  <text x="779.6" y="2101.0" fill="#1a202c" font-size="14" text-anchor="middle" dominant-baseline="middle">select_graph_type</text>
  </g>
  <g class="node" data-id="S">
  <rect x="920.5" y="2076.0" width="193.2" height="50.0" rx="8" ry="8" fill="#fde68a" stroke="#2d3748" stroke-width="2" />
  <text x="1017.1" y="2101.0" fill="#1a202c" font-size="14" text-anchor="middle" dominant-baseline="middle">ensure_unique_path</text>
  </g>
  <g class="node" data-id="T">
  <rect x="1161.7" y="2076.0" width="230.2" height="50.0" rx="8" ry="8" fill="#fde68a" stroke="#2d3748" stroke-width="2" />
  <text x="1276.8" y="2101.0" fill="#1a202c" font-size="14" text-anchor="middle" dominant-baseline="middle">ServeArgs Configuration</text>
  </g>
  <g class="node" data-id="U">
  <rect x="1439.9" y="880.0" width="141.4" height="50.0" rx="8" ry="8" fill="#fde68a" stroke="#2d3748" stroke-width="2" />
  <text x="1510.6" y="905.0" fill="#1a202c" font-size="14" text-anchor="middle" dominant-baseline="middle">parse_input</text>
  </g>
  <g class="node" data-id="V">
  <rect x="1629.3" y="880.0" width="185.8" height="50.0" rx="8" ry="8" fill="#fde68a" stroke="#2d3748" stroke-width="2" />
  <text x="1722.2" y="905.0" fill="#1a202c" font-size="14" text-anchor="middle" dominant-baseline="middle">read input source</text>
  </g>
  <g class="node" data-id="W">
  <rect x="1640.4" y="1040.0" width="163.6" height="50.0" rx="8" ry="8" fill="#fde68a" stroke="#2d3748" stroke-width="2" />
  <text x="1722.2" y="1065.0" fill="#1a202c" font-size="14" text-anchor="middle" dominant-baseline="middle">Diagram::parse</text>
  </g>
  <g class="node" data-id="X">
  <rect x="1536.8" y="1200.0" width="370.8" height="50.0" rx="8" ry="8" fill="#fde68a" stroke="#2d3748" stroke-width="2" />
  <text x="1722.2" y="1225.0" fill="#1a202c" font-size="14" text-anchor="middle" dominant-baseline="middle">Diagram::render_svg or Diagram::render_png</text>
  </g>
  <g class="node" data-id="Y">
  <rect x="1636.7" y="1360.0" width="171.0" height="50.0" rx="8" ry="8" fill="#fde68a" stroke="#2d3748" stroke-width="2" />
  <text x="1722.2" y="1385.0" fill="#1a202c" font-size="14" text-anchor="middle" dominant-baseline="middle">Write to output</text>
  </g>
</svg>
