<?xml version="1.0" encoding="UTF-8"?>
<svg xmlns="http://www.w3.org/2000/svg" xmlns:xlink="http://www.w3.org/1999/xlink" width="2726" height="1538" viewBox="0 0 2726 1538" font-family="Inter, system-ui, sans-serif">
  <defs>
        <marker id="arrow-end" markerWidth="8" markerHeight="8" refX="6" refY="4" orient="auto" markerUnits="strokeWidth">
            <path d="M1,1 L6,4 L1,7 z" fill="context-stroke" />
        </marker>
        <marker id="arrow-start" markerWidth="8" markerHeight="8" refX="2" refY="4" orient="auto" markerUnits="strokeWidth">
            <path d="M7,1 L2,4 L7,7 z" fill="context-stroke" />
        </marker>
  </defs>
  <rect width="100%" height="100%" fill="white" />
  <g class="subgraph" data-id="LLM_Code_Map_Generation">
    <rect x="80.0" y="316.0" width="995.1" height="1142.0" rx="16" ry="16" fill="#edf2f7" fill-opacity="0.7" stroke="#a0aec0" stroke-width="1.5" />
    <text x="884.9" y="336.0" fill="#2d3748" font-size="14" font-weight="600" text-anchor="start" dominant-baseline="hanging">LLM Code Map Generation</text>
  </g>
  <g class="subgraph" data-id="Edit_Mode">
    <rect x="1171.1" y="476.0" width="815.3" height="502.0" rx="16" ry="16" fill="#edf2f7" fill-opacity="0.7" stroke="#a0aec0" stroke-width="1.5" />
    <text x="1899.8" y="496.0" fill="#2d3748" font-size="14" font-weight="600" text-anchor="start" dominant-baseline="hanging">Edit Mode</text>
  </g>
  <g class="subgraph" data-id="New_Diagram">
    <rect x="1171.1" y="1074.0" width="824.1" height="342.0" rx="16" ry="16" fill="#edf2f7" fill-opacity="0.7" stroke="#a0aec0" stroke-width="1.5" />
    <text x="1893.8" y="1094.0" fill="#2d3748" font-size="14" font-weight="600" text-anchor="start" dominant-baseline="hanging">New Diagram</text>
  </g>
  <g class="subgraph" data-id="Render_Diagram">
    <rect x="2082.4" y="636.0" width="563.7" height="822.0" rx="16" ry="16" fill="#edf2f7" fill-opacity="0.7" stroke="#a0aec0" stroke-width="1.5" />
    <text x="2522.5" y="656.0" fill="#2d3748" font-size="14" font-weight="600" text-anchor="start" dominant-baseline="hanging">Render Diagram</text>
  </g>
  <g class="edge" data-id="A --&gt; B">
  <line x1="1010.4" y1="130.0" x2="1010.4" y2="239.0" stroke="#2d3748" stroke-width="2" marker-end="url(#arrow-end)" />
  </g>
  <g class="edge" data-id="B --&gt; C">
  <polyline points="992.9,284.4 916.4,369.0 916.4,399.0" fill="none" stroke="#2d3748" stroke-width="2" marker-end="url(#arrow-end)" />
  <g pointer-events="none">
    <rect x="897.3" y="355.0" width="38.2" height="28.0" rx="6" ry="6" fill="white" fill-opacity="0.96" stroke="#2d3748" stroke-width="1" />
    <text x="916.4" y="369.0" fill="#2d3748" font-size="13" text-anchor="middle" dominant-baseline="middle" xml:space="preserve">Yes</text>
  </g>
  </g>
  <g class="edge" data-id="B --&gt; D">
  <polyline points="1031.1,283.4 1127.3,369.0 1127.3,399.0" fill="none" stroke="#2d3748" stroke-width="2" marker-end="url(#arrow-end)" />
  <g pointer-events="none">
    <rect x="1109.3" y="355.0" width="36.0" height="28.0" rx="6" ry="6" fill="white" fill-opacity="0.96" stroke="#2d3748" stroke-width="1" />
    <text x="1127.3" y="369.0" fill="#2d3748" font-size="13" text-anchor="middle" dominant-baseline="middle" xml:space="preserve">No</text>
  </g>
  </g>
  <g class="edge" data-id="D --&gt; E">
  <polyline points="1175.9,432.7 1787.0,529.0 1787.0,559.0" fill="none" stroke="#2d3748" stroke-width="2" marker-end="url(#arrow-end)" />
  <g pointer-events="none">
    <rect x="1767.9" y="515.0" width="38.2" height="28.0" rx="6" ry="6" fill="white" fill-opacity="0.96" stroke="#2d3748" stroke-width="1" />
    <text x="1787.0" y="529.0" fill="#2d3748" font-size="13" text-anchor="middle" dominant-baseline="middle" xml:space="preserve">Yes</text>
  </g>
  </g>
  <g class="edge" data-id="D --&gt; F">
  <polyline points="1149.5,442.1 1262.7,529.0 1262.7,559.0" fill="none" stroke="#2d3748" stroke-width="2" marker-end="url(#arrow-end)" />
  <g pointer-events="none">
    <rect x="1244.7" y="515.0" width="36.0" height="28.0" rx="6" ry="6" fill="white" fill-opacity="0.96" stroke="#2d3748" stroke-width="1" />
    <text x="1262.7" y="529.0" fill="#2d3748" font-size="13" text-anchor="middle" dominant-baseline="middle" xml:space="preserve">No</text>
  </g>
  </g>
  <g class="edge" data-id="F --&gt; G">
  <polyline points="1262.7,610.0 1262.7,796.0 1872.8,796.0 1872.8,1157.0" fill="none" stroke="#2d3748" stroke-width="2" marker-end="url(#arrow-end)" />
  <g pointer-events="none">
    <rect x="1853.7" y="782.0" width="38.2" height="28.0" rx="6" ry="6" fill="white" fill-opacity="0.96" stroke="#2d3748" stroke-width="1" />
    <text x="1872.8" y="796.0" fill="#2d3748" font-size="13" text-anchor="middle" dominant-baseline="middle" xml:space="preserve">Yes</text>
  </g>
  </g>
  <g class="edge" data-id="F --&gt; H">
  <polyline points="1316.6,590.7 2238.8,689.0 2238.8,719.0" fill="none" stroke="#2d3748" stroke-width="2" marker-end="url(#arrow-end)" />
  <g pointer-events="none">
    <rect x="2220.8" y="675.0" width="36.0" height="28.0" rx="6" ry="6" fill="white" fill-opacity="0.96" stroke="#2d3748" stroke-width="1" />
    <text x="2238.8" y="689.0" fill="#2d3748" font-size="13" text-anchor="middle" dominant-baseline="middle" xml:space="preserve">No</text>
  </g>
  </g>
  <g class="edge" data-id="C --&gt; I">
  <line x1="900.4" y1="450.0" x2="830.8" y2="559.2" stroke="#2d3748" stroke-width="2" marker-end="url(#arrow-end)" />
  </g>
  <g class="edge" data-id="I --&gt; J">
  <line x1="774.2" y1="610.0" x2="598.6" y2="719.5" stroke="#2d3748" stroke-width="2" marker-end="url(#arrow-end)" />
  </g>
  <g class="edge" data-id="J --&gt; K">
  <line x1="521.8" y1="770.0" x2="364.9" y2="879.4" stroke="#2d3748" stroke-width="2" marker-end="url(#arrow-end)" />
  </g>
  <g class="edge" data-id="K --&gt; L">
  <line x1="328.2" y1="930.0" x2="328.2" y2="1039.0" stroke="#2d3748" stroke-width="2" marker-end="url(#arrow-end)" />
  </g>
  <g class="edge" data-id="L --&gt; M">
  <line x1="328.2" y1="1090.0" x2="328.2" y2="1199.0" stroke="#2d3748" stroke-width="2" marker-end="url(#arrow-end)" />
  </g>
  <g class="edge" data-id="M --&gt; N">
  <polyline points="465.9,1250.0 900.9,1329.0 900.9,1359.0" fill="none" stroke="#2d3748" stroke-width="2" marker-end="url(#arrow-end)" />
  <g pointer-events="none">
    <rect x="874.4" y="1315.0" width="53.0" height="28.0" rx="6" ry="6" fill="white" fill-opacity="0.96" stroke="#2d3748" stroke-width="1" />
    <text x="900.9" y="1329.0" fill="#2d3748" font-size="13" text-anchor="middle" dominant-baseline="middle" xml:space="preserve">Valid</text>
  </g>
  </g>
  <g class="edge" data-id="M --&gt; K">
  <polyline points="328.2,1225.0 205.6,1225.0 205.6,1017.0 328.2,1017.0 328.2,931.0" fill="none" stroke="#2d3748" stroke-width="2" marker-end="url(#arrow-end)" />
  <g pointer-events="none">
    <rect x="294.3" y="1003.0" width="67.8" height="28.0" rx="6" ry="6" fill="white" fill-opacity="0.96" stroke="#2d3748" stroke-width="1" />
    <text x="328.2" y="1017.0" fill="#2d3748" font-size="13" text-anchor="middle" dominant-baseline="middle" xml:space="preserve">Invalid</text>
  </g>
  </g>
  <g class="edge" data-id="E --&gt; O">
  <line x1="1754.4" y1="610.0" x2="1611.8" y2="719.4" stroke="#2d3748" stroke-width="2" marker-end="url(#arrow-end)" />
  </g>
  <g class="edge" data-id="E --&gt; P">
  <line x1="1792.7" y1="610.0" x2="1817.4" y2="719.0" stroke="#2d3748" stroke-width="2" marker-end="url(#arrow-end)" />
  </g>
  <g class="edge" data-id="E --&gt; Q">
  <polyline points="1708.9,568.0 1582.5,540.5 1458.1,620.5 1333.6,700.5 1294.8,879.0" fill="none" stroke="#2d3748" stroke-width="2" marker-end="url(#arrow-end)" />
  </g>
  <g class="edge" data-id="G --&gt; R">
  <line x1="1798.4" y1="1204.2" x2="1400.6" y2="1317.7" stroke="#2d3748" stroke-width="2" marker-end="url(#arrow-end)" />
  </g>
  <g class="edge" data-id="G --&gt; S">
  <line x1="1822.3" y1="1208.0" x2="1600.9" y2="1317.6" stroke="#2d3748" stroke-width="2" marker-end="url(#arrow-end)" />
  </g>
  <g class="edge" data-id="G --&gt; T">
  <line x1="1862.9" y1="1208.0" x2="1819.5" y2="1317.1" stroke="#2d3748" stroke-width="2" marker-end="url(#arrow-end)" />
  </g>
  <g class="edge" data-id="G --&gt; Q">
  <line x1="1820.3" y1="1158.0" x2="1342.5" y2="930.4" stroke="#2d3748" stroke-width="2" marker-end="url(#arrow-end)" />
  </g>
  <g class="edge" data-id="H --&gt; U">
  <line x1="2232.9" y1="770.0" x2="2207.2" y2="879.0" stroke="#2d3748" stroke-width="2" marker-end="url(#arrow-end)" />
  </g>
  <g class="edge" data-id="H --&gt; V">
  <line x1="2266.0" y1="770.0" x2="2384.8" y2="879.3" stroke="#2d3748" stroke-width="2" marker-end="url(#arrow-end)" />
  </g>
  <g class="edge" data-id="V --&gt; W">
  <line x1="2412.7" y1="930.0" x2="2412.7" y2="1039.0" stroke="#2d3748" stroke-width="2" marker-end="url(#arrow-end)" />
  </g>
  <g class="edge" data-id="W --&gt; X">
  <line x1="2412.7" y1="1090.0" x2="2412.7" y2="1199.0" stroke="#2d3748" stroke-width="2" marker-end="url(#arrow-end)" />
  </g>
  <g class="edge" data-id="X --&gt; Y">
  <line x1="2412.7" y1="1250.0" x2="2412.7" y2="1359.0" stroke="#2d3748" stroke-width="2" marker-end="url(#arrow-end)" />
  </g>
  <g class="node" data-id="A">
  <rect x="895.3" y="80.0" width="230.2" height="50.0" rx="8" ry="8" fill="#fde68a" stroke="#2d3748" stroke-width="2" />
  <text x="1010.4" y="105.0" fill="#1a202c" font-size="14" text-anchor="middle" dominant-baseline="middle">cli::run_render_or_edit</text>
  </g>
  <g class="node" data-id="B">
  <polygon points="1010.4,240.0 1088.5,265.0 1010.4,290.0 932.3,265.0" fill="#fbcfe8" stroke="#2d3748" stroke-width="2" />
  <text x="1010.4" y="265.0" fill="#1a202c" font-size="14" text-anchor="middle" dominant-baseline="middle">cli.code_map?</text>
  </g>
  <g class="node" data-id="C">
  <rect x="823.5" y="400.0" width="185.8" height="50.0" rx="8" ry="8" fill="#fde68a" stroke="#2d3748" stroke-width="2" />
  <text x="916.4" y="425.0" fill="#1a202c" font-size="14" text-anchor="middle" dominant-baseline="middle">cli::run_code_map</text>
  </g>
  <g class="node" data-id="D">
  <polygon points="1127.3,400.0 1197.3,425.0 1127.3,450.0 1057.3,425.0" fill="#fbcfe8" stroke="#2d3748" stroke-width="2" />
  <text x="1127.3" y="425.0" fill="#1a202c" font-size="14" text-anchor="middle" dominant-baseline="middle">cli.edit?</text>
  </g>
  <g class="node" data-id="E">
  <rect x="1708.9" y="560.0" width="156.2" height="50.0" rx="8" ry="8" fill="#fde68a" stroke="#2d3748" stroke-width="2" />
  <text x="1787.0" y="585.0" fill="#1a202c" font-size="14" text-anchor="middle" dominant-baseline="middle">cli::run_edit</text>
  </g>
  <g class="node" data-id="F">
  <polygon points="1262.7,560.0 1332.7,585.0 1262.7,610.0 1192.7,585.0" fill="#fbcfe8" stroke="#2d3748" stroke-width="2" />
  <text x="1262.7" y="585.0" fill="#1a202c" font-size="14" text-anchor="middle" dominant-baseline="middle">cli.new?</text>
  </g>
  <g class="node" data-id="G">
  <rect x="1798.4" y="1158.0" width="148.8" height="50.0" rx="8" ry="8" fill="#fde68a" stroke="#2d3748" stroke-width="2" />
  <text x="1872.8" y="1183.0" fill="#1a202c" font-size="14" text-anchor="middle" dominant-baseline="middle">cli::run_new</text>
  </g>
  <g class="node" data-id="H">
  <rect x="2153.3" y="720.0" width="171.0" height="50.0" rx="8" ry="8" fill="#fde68a" stroke="#2d3748" stroke-width="2" />
  <text x="2238.8" y="745.0" fill="#1a202c" font-size="14" text-anchor="middle" dominant-baseline="middle">cli::run_render</text>
  </g>
  <g class="node" data-id="I">
  <rect x="688.1" y="560.0" width="252.4" height="50.0" rx="8" ry="8" fill="#fde68a" stroke="#2d3748" stroke-width="2" />
  <text x="814.3" y="585.0" fill="#1a202c" font-size="14" text-anchor="middle" dominant-baseline="middle">codemap::generate_code_map</text>
  </g>
  <g class="node" data-id="J">
  <rect x="387.0" y="720.0" width="341.2" height="50.0" rx="8" ry="8" fill="#fde68a" stroke="#2d3748" stroke-width="2" />
  <text x="557.6" y="745.0" fill="#1a202c" font-size="14" text-anchor="middle" dominant-baseline="middle">Scan codebase (codemap::scan_codebase)</text>
  </g>
  <g class="node" data-id="K">
  <rect x="205.7" y="880.0" width="245.0" height="50.0" rx="8" ry="8" fill="#fde68a" stroke="#2d3748" stroke-width="2" />
  <text x="328.2" y="905.0" fill="#1a202c" font-size="14" text-anchor="middle" dominant-baseline="middle">LLM API Request (reqwest)</text>
  </g>
  <g class="node" data-id="L">
  <rect x="231.6" y="1040.0" width="193.2" height="50.0" rx="8" ry="8" fill="#fde68a" stroke="#2d3748" stroke-width="2" />
  <text x="328.2" y="1065.0" fill="#1a202c" font-size="14" text-anchor="middle" dominant-baseline="middle">Parse LLM Response</text>
  </g>
  <g class="node" data-id="M">
  <rect x="128.0" y="1200.0" width="400.4" height="50.0" rx="8" ry="8" fill="#fde68a" stroke="#2d3748" stroke-width="2" />
  <text x="328.2" y="1225.0" fill="#1a202c" font-size="14" text-anchor="middle" dominant-baseline="middle">Validate Response (codemap::validate_response)</text>
  </g>
  <g class="node" data-id="N">
  <rect x="774.7" y="1360.0" width="252.4" height="50.0" rx="8" ry="8" fill="#fde68a" stroke="#2d3748" stroke-width="2" />
  <text x="900.9" y="1385.0" fill="#1a202c" font-size="14" text-anchor="middle" dominant-baseline="middle">Return Mermaid and Mapping</text>
  </g>
  <g class="node" data-id="O">
  <rect x="1496.6" y="720.0" width="163.6" height="50.0" rx="8" ry="8" fill="#fde68a" stroke="#2d3748" stroke-width="2" />
  <text x="1578.4" y="745.0" fill="#1a202c" font-size="14" text-anchor="middle" dominant-baseline="middle">locate_ui_dist</text>
  </g>
  <g class="node" data-id="P">
  <rect x="1708.2" y="720.0" width="230.2" height="50.0" rx="8" ry="8" fill="#fde68a" stroke="#2d3748" stroke-width="2" />
  <text x="1823.3" y="745.0" fill="#1a202c" font-size="14" text-anchor="middle" dominant-baseline="middle">ServeArgs Configuration</text>
  </g>
  <g class="node" data-id="Q">
  <rect x="1219.1" y="880.0" width="140.0" height="50.0" rx="8" ry="8" fill="#fde68a" stroke="#2d3748" stroke-width="2" />
  <text x="1289.1" y="905.0" fill="#1a202c" font-size="14" text-anchor="middle" dominant-baseline="middle">run_serve</text>
  </g>
  <g class="node" data-id="R">
  <rect x="1219.1" y="1318.0" width="185.8" height="50.0" rx="8" ry="8" fill="#fde68a" stroke="#2d3748" stroke-width="2" />
  <text x="1312.0" y="1343.0" fill="#1a202c" font-size="14" text-anchor="middle" dominant-baseline="middle">select_graph_type</text>
  </g>
  <g class="node" data-id="S">
  <rect x="1452.9" y="1318.0" width="193.2" height="50.0" rx="8" ry="8" fill="#fde68a" stroke="#2d3748" stroke-width="2" />
  <text x="1549.5" y="1343.0" fill="#1a202c" font-size="14" text-anchor="middle" dominant-baseline="middle">ensure_unique_path</text>
  </g>
  <g class="node" data-id="T">
  <rect x="1694.1" y="1318.0" width="230.2" height="50.0" rx="8" ry="8" fill="#fde68a" stroke="#2d3748" stroke-width="2" />
  <text x="1809.2" y="1343.0" fill="#1a202c" font-size="14" text-anchor="middle" dominant-baseline="middle">ServeArgs Configuration</text>
  </g>
  <g class="node" data-id="U">
  <rect x="2130.4" y="880.0" width="141.4" height="50.0" rx="8" ry="8" fill="#fde68a" stroke="#2d3748" stroke-width="2" />
  <text x="2201.1" y="905.0" fill="#1a202c" font-size="14" text-anchor="middle" dominant-baseline="middle">parse_input</text>
  </g>
  <g class="node" data-id="V">
  <rect x="2319.8" y="880.0" width="185.8" height="50.0" rx="8" ry="8" fill="#fde68a" stroke="#2d3748" stroke-width="2" />
  <text x="2412.7" y="905.0" fill="#1a202c" font-size="14" text-anchor="middle" dominant-baseline="middle">read input source</text>
  </g>
  <g class="node" data-id="W">
  <rect x="2330.9" y="1040.0" width="163.6" height="50.0" rx="8" ry="8" fill="#fde68a" stroke="#2d3748" stroke-width="2" />
  <text x="2412.7" y="1065.0" fill="#1a202c" font-size="14" text-anchor="middle" dominant-baseline="middle">Diagram::parse</text>
  </g>
  <g class="node" data-id="X">
  <rect x="2227.3" y="1200.0" width="370.8" height="50.0" rx="8" ry="8" fill="#fde68a" stroke="#2d3748" stroke-width="2" />
  <text x="2412.7" y="1225.0" fill="#1a202c" font-size="14" text-anchor="middle" dominant-baseline="middle">Diagram::render_svg or Diagram::render_png</text>
  </g>
  <g class="node" data-id="Y">
  <rect x="2327.2" y="1360.0" width="171.0" height="50.0" rx="8" ry="8" fill="#fde68a" stroke="#2d3748" stroke-width="2" />
  <text x="2412.7" y="1385.0" fill="#1a202c" font-size="14" text-anchor="middle" dominant-baseline="middle">Write to output</text>
  </g>
</svg>
