<?xml version="1.0" encoding="UTF-8"?>
<svg xmlns="http://www.w3.org/2000/svg" xmlns:xlink="http://www.w3.org/1999/xlink" width="1234" height="790" viewBox="0 0 1234 790" font-family="Inter, system-ui, sans-serif">
  <defs>
        <marker id="arrow-end" markerWidth="8" markerHeight="8" refX="6" refY="4" orient="auto" markerUnits="strokeWidth">
            <path d="M1,1 L6,4 L1,7 z" fill="context-stroke" />
        </marker>
        <marker id="arrow-start" markerWidth="8" markerHeight="8" refX="2" refY="4" orient="auto" markerUnits="strokeWidth">
            <path d="M7,1 L2,4 L7,7 z" fill="context-stroke" />
        </marker>
  </defs>
  <rect width="100%" height="100%" fill="white" />
  <g class="subgraph" data-id="RenderingPipeline">
    <rect x="80.0" y="80.0" width="762.5" height="307.0" rx="16" ry="16" fill="#edf2f7" fill-opacity="0.7" stroke="#a0aec0" stroke-width="1.5" />
    <text x="696.7" y="100.0" fill="#2d3748" font-size="14" font-weight="600" text-anchor="start" dominant-baseline="hanging">RenderingPipeline</text>
  </g>
  <g class="subgraph" data-id="ErrorHandling">
    <rect x="598.4" y="438.0" width="443.2" height="272.0" rx="16" ry="16" fill="#edf2f7" fill-opacity="0.7" stroke="#a0aec0" stroke-width="1.5" />
    <text x="925.4" y="458.0" fill="#2d3748" font-size="14" font-weight="600" text-anchor="start" dominant-baseline="hanging">ErrorHandling</text>
  </g>
  <g class="edge" data-id="API --&gt; Queue">
  <line x1="268.0" y1="269.0" x2="287.0" y2="269.0" stroke="#2d3748" stroke-width="2" marker-end="url(#arrow-end)" />
  </g>
  <g class="edge" data-id="Queue --&gt; Renderer">
  <line x1="428.0" y1="269.0" x2="447.0" y2="269.0" stroke="#2d3748" stroke-width="2" marker-end="url(#arrow-end)" />
  </g>
  <g class="edge" data-id="Renderer --&gt; Storage">
  <line x1="595.7" y1="244.0" x2="665.0" y2="214.4" stroke="#2d3748" stroke-width="2" marker-end="url(#arrow-end)" />
  </g>
  <g class="edge" data-id="Renderer --&gt; Retry">
  <line x1="551.7" y1="294.0" x2="711.8" y2="570.0" stroke="#2d3748" stroke-width="2" marker-end="url(#arrow-end)" />
  <g pointer-events="none">
    <rect x="597.8" y="408.0" width="67.8" height="28.0" rx="6" ry="6" fill="white" fill-opacity="0.96" stroke="#2d3748" stroke-width="1" />
    <text x="631.7" y="422.0" fill="#2d3748" font-size="13" text-anchor="middle" dominant-baseline="middle" xml:space="preserve">failure</text>
  </g>
  </g>
  <g class="edge" data-id="Retry --&gt; Alert">
  <polyline points="749.1,609.1 790.4,638.0 816.3,638.0 842.2,638.0 871.5,617.6" fill="none" stroke="#2d3748" stroke-width="2" marker-end="url(#arrow-end)" />
  <g pointer-events="none">
    <rect x="775.0" y="624.0" width="82.6" height="28.0" rx="6" ry="6" fill="white" fill-opacity="0.96" stroke="#2d3748" stroke-width="1" />
    <text x="816.3" y="638.0" fill="#2d3748" font-size="13" text-anchor="middle" dominant-baseline="middle" xml:space="preserve">exhausted</text>
  </g>
  </g>
  <g class="edge" data-id="Retry --&gt; Queue">
  <line x1="703.7" y1="573.7" x2="411.3" y2="315.9" stroke="#2d3748" stroke-width="2" marker-end="url(#arrow-end)" />
  <g pointer-events="none">
    <rect x="516.2" y="420.8" width="82.6" height="28.0" rx="6" ry="6" fill="white" fill-opacity="0.96" stroke="#2d3748" stroke-width="1" />
    <text x="557.5" y="434.8" fill="#2d3748" font-size="13" text-anchor="middle" dominant-baseline="middle" xml:space="preserve">available</text>
  </g>
  </g>
  <g class="edge" data-id="Storage --&gt; CDN">
  <line x1="794.5" y1="189.0" x2="837.1" y2="189.0" stroke="#2d3748" stroke-width="2" marker-end="url(#arrow-end)" />
  </g>
  <g class="edge" data-id="CDN --&gt; User">
  <line x1="978.1" y1="189.0" x2="1012.6" y2="189.0" stroke="#2d3748" stroke-width="2" marker-end="url(#arrow-end)" />
  </g>
  <g class="node" data-id="API">
  <path d="M128.0,252.3 A70.0,8.3 0 0 1 268.0,252.3 L268.0,285.7 A70.0,8.3 0 0 1 128.0,285.7 Z" fill="#bbf7d0" stroke="#2d3748" stroke-width="2" />
  <path d="M128.0,252.3 A70.0,8.3 0 0 1 268.0,252.3" fill="none" stroke="#2d3748" stroke-width="2" />
  <text x="198.0" y="269.0" fill="#1a202c" font-size="14" text-anchor="middle" dominant-baseline="middle">HTTP API</text>
  </g>
  <g class="node" data-id="Queue">
  <ellipse cx="358.0" cy="269.0" rx="70.0" ry="70.0" fill="#e9d8fd" stroke="#2d3748" stroke-width="2" />
  <text x="358.0" y="269.0" fill="#1a202c" font-size="14" text-anchor="middle" dominant-baseline="middle">Task Queue</text>
  </g>
  <g class="node" data-id="Renderer">
  <polygon points="448.0,244.0 603.9,244.0 626.4,269.0 603.9,294.0 448.0,294.0" fill="#f5d0fe" stroke="#2d3748" stroke-width="2" />
  <text x="537.2" y="269.0" fill="#1a202c" font-size="14" text-anchor="middle" dominant-baseline="middle">Renderer Service</text>
  </g>
  <g class="node" data-id="Storage">
  <path d="M654.5,172.3 A70.0,8.3 0 0 1 794.5,172.3 L794.5,205.7 A70.0,8.3 0 0 1 654.5,205.7 Z" fill="#bbf7d0" stroke="#2d3748" stroke-width="2" />
  <path d="M654.5,172.3 A70.0,8.3 0 0 1 794.5,172.3" fill="none" stroke="#2d3748" stroke-width="2" />
  <text x="724.5" y="189.0" fill="#1a202c" font-size="14" text-anchor="middle" dominant-baseline="middle">S3 Bucket</text>
  </g>
  <g class="node" data-id="Retry">
  <polygon points="724.5,567.0 802.6,592.0 724.5,617.0 646.4,592.0" fill="#fbcfe8" stroke="#2d3748" stroke-width="2" />
  <text x="724.5" y="592.0" fill="#1a202c" font-size="14" text-anchor="middle" dominant-baseline="middle">Retry Budget?</text>
  </g>
  <g class="node" data-id="Alert">
  <rect x="822.6" y="567.0" width="171.0" height="50.0" rx="8" ry="8" fill="#fde68a" stroke="#2d3748" stroke-width="2" />
  <text x="908.1" y="592.0" fill="#1a202c" font-size="14" text-anchor="middle" dominant-baseline="middle">PagerDuty Alert</text>
  </g>
  <g class="node" data-id="CDN">
  <rect x="838.1" y="164.0" width="140.0" height="50.0" rx="8" ry="8" fill="#fde68a" stroke="#2d3748" stroke-width="2" />
  <text x="908.1" y="189.0" fill="#1a202c" font-size="14" text-anchor="middle" dominant-baseline="middle">CDN</text>
  </g>
  <g class="node" data-id="User">
  <rect x="1013.6" y="164.0" width="140.0" height="50.0" rx="8" ry="8" fill="#fde68a" stroke="#2d3748" stroke-width="2" />
  <text x="1083.6" y="189.0" fill="#1a202c" font-size="14" text-anchor="middle" dominant-baseline="middle">User</text>
  </g>
</svg>
