<?xml version="1.0" encoding="UTF-8"?>
<svg xmlns="http://www.w3.org/2000/svg" xmlns:xlink="http://www.w3.org/1999/xlink" width="677" height="488" viewBox="0 0 677 488" font-family="Inter, system-ui, sans-serif">
  <defs>
        <marker id="arrow-end" markerWidth="8" markerHeight="8" refX="6" refY="4" orient="auto" markerUnits="strokeWidth">
            <path d="M1,1 L6,4 L1,7 z" fill="context-stroke" />
        </marker>
        <marker id="arrow-start" markerWidth="8" markerHeight="8" refX="2" refY="4" orient="auto" markerUnits="strokeWidth">
            <path d="M7,1 L2,4 L7,7 z" fill="context-stroke" />
        </marker>
        <marker id="triangle-end" markerWidth="12" markerHeight="12" refX="10" refY="6" orient="auto" markerUnits="strokeWidth">
            <path d="M2,2 L10,6 L2,10 z" fill="white" stroke="context-stroke" stroke-width="1.4" />
        </marker>
        <marker id="triangle-start" markerWidth="12" markerHeight="12" refX="2" refY="6" orient="auto" markerUnits="strokeWidth">
            <path d="M10,2 L2,6 L10,10 z" fill="white" stroke="context-stroke" stroke-width="1.4" />
        </marker>
  </defs>
  <rect width="100%" height="100%" fill="white" />
  <line x1="264.1" y1="236.0" x2="234.3" y2="267.3" stroke="#2d3748" stroke-width="2" marker-start="url(#triangle-start)" />
  <line x1="344.9" y1="236.0" x2="348.1" y2="275.0" stroke="#2d3748" stroke-width="2" marker-start="url(#triangle-start)" />
  <line x1="414.3" y1="231.2" x2="460.0" y2="275.3" stroke="#2d3748" stroke-width="2" marker-start="url(#triangle-start)" />
  <rect x="262.7" y="80.0" width="151.6" height="156.0" fill="#fde68a" stroke="#2d3748" stroke-width="2" />
  <text x="338.5" y="98.0" fill="#1a202c" font-size="14" font-weight="600" text-anchor="middle" dominant-baseline="middle">Animal</text>
  <line x1="262.7" y1="116.0" x2="414.3" y2="116.0" stroke="#2d3748" stroke-width="1.5" />
  <text x="274.7" y="142.0" fill="#1a202c" font-size="14" text-anchor="start" dominant-baseline="middle">+int age</text>
  <text x="274.7" y="158.0" fill="#1a202c" font-size="14" text-anchor="start" dominant-baseline="middle">+String gender</text>
  <line x1="262.7" y1="176.0" x2="414.3" y2="176.0" stroke="#2d3748" stroke-width="1.5" />
  <text x="274.7" y="202.0" fill="#1a202c" font-size="14" text-anchor="start" dominant-baseline="middle">+isMammal()</text>
  <text x="274.7" y="218.0" fill="#1a202c" font-size="14" text-anchor="start" dominant-baseline="middle">+mate()</text>
  <rect x="80.0" y="268.0" width="173.8" height="140.0" fill="#fde68a" stroke="#2d3748" stroke-width="2" />
  <text x="166.9" y="286.0" fill="#1a202c" font-size="14" font-weight="600" text-anchor="middle" dominant-baseline="middle">Duck</text>
  <line x1="80.0" y1="304.0" x2="253.8" y2="304.0" stroke="#2d3748" stroke-width="1.5" />
  <text x="92.0" y="330.0" fill="#1a202c" font-size="14" text-anchor="start" dominant-baseline="middle">+String beakColor</text>
  <line x1="80.0" y1="348.0" x2="253.8" y2="348.0" stroke="#2d3748" stroke-width="1.5" />
  <text x="92.0" y="374.0" fill="#1a202c" font-size="14" text-anchor="start" dominant-baseline="middle">+swim()</text>
  <text x="92.0" y="390.0" fill="#1a202c" font-size="14" text-anchor="start" dominant-baseline="middle">+quack()</text>
  <rect x="273.8" y="276.0" width="159.0" height="124.0" fill="#fde68a" stroke="#2d3748" stroke-width="2" />
  <text x="353.3" y="294.0" fill="#1a202c" font-size="14" font-weight="600" text-anchor="middle" dominant-baseline="middle">Fish</text>
  <line x1="273.8" y1="312.0" x2="432.8" y2="312.0" stroke="#2d3748" stroke-width="1.5" />
  <text x="285.8" y="338.0" fill="#1a202c" font-size="14" text-anchor="start" dominant-baseline="middle">-int sizeInFeet</text>
  <line x1="273.8" y1="356.0" x2="432.8" y2="356.0" stroke="#2d3748" stroke-width="1.5" />
  <text x="285.8" y="382.0" fill="#1a202c" font-size="14" text-anchor="start" dominant-baseline="middle">-canEat()</text>
  <rect x="452.8" y="276.0" width="144.2" height="124.0" fill="#fde68a" stroke="#2d3748" stroke-width="2" />
  <text x="524.9" y="294.0" fill="#1a202c" font-size="14" font-weight="600" text-anchor="middle" dominant-baseline="middle">Zebra</text>
  <line x1="452.8" y1="312.0" x2="597.0" y2="312.0" stroke="#2d3748" stroke-width="1.5" />
  <text x="464.8" y="338.0" fill="#1a202c" font-size="14" text-anchor="start" dominant-baseline="middle">+bool is_wild</text>
  <line x1="452.8" y1="356.0" x2="597.0" y2="356.0" stroke="#2d3748" stroke-width="1.5" />
  <text x="464.8" y="382.0" fill="#1a202c" font-size="14" text-anchor="start" dominant-baseline="middle">+run()</text>
</svg>
